<svg width="20" height="22" viewBox="0 0 20 22" fill="none" xmlns="http://www.w3.org/2000/svg">
<path d="M2.95312 1.25H17.9531C18.6435 1.25 19.2031 1.80964 19.2031 2.5V19.2837C19.2031 20.3834 17.8667 20.9679 17.052 20.2025C15.7734 19.0013 14.3477 17.6823 13.1877 16.6617C12.609 16.1526 12.0876 15.7099 11.6798 15.3916C11.4775 15.2336 11.2902 15.0961 11.1309 14.9946C11.0521 14.9444 10.9655 14.8936 10.8779 14.8527C10.8154 14.8236 10.6528 14.75 10.4531 14.75C10.2535 14.75 10.0908 14.8236 10.0284 14.8527C9.94074 14.8936 9.85413 14.9444 9.77533 14.9946C9.61603 15.0961 9.42874 15.2336 9.22643 15.3916C8.81869 15.7099 8.2973 16.1526 7.7186 16.6617C6.55853 17.6823 5.13288 19.0013 3.85429 20.2025C3.03957 20.9679 1.70312 20.3834 1.70312 19.2837V2.5C1.70312 1.80964 2.26277 1.25 2.95312 1.25Z" stroke="#252F3F" stroke-width="1.5"/>
</svg>
