<svg width="23" height="23" viewBox="0 0 23 23" fill="none" xmlns="http://www.w3.org/2000/svg">
<path d="M20.4153 0.69778L1.14874 11.7773C0.159603 12.3356 0.245614 13.7956 1.27775 14.2251L7.34156 16.7158V21.0961C7.34156 22.4274 8.93278 22.9856 9.74989 21.9979L12.3732 18.8201L17.792 21.0531C18.6091 21.3967 19.5552 20.8814 19.6842 19.9796L22.4366 2.07198C22.6086 0.955443 21.4044 0.096567 20.4153 0.69778ZM8.71775 21.0961V17.317L11.0401 18.2618L8.71775 21.0961ZM18.351 19.8078L9.44885 16.1146L18.05 6.02281C18.265 5.76515 17.921 5.4216 17.6629 5.63632L6.69648 14.9981L1.83683 12.9797L21.1034 1.85726L18.351 19.8078Z" fill="#252F3F"/>
</svg>
