<?xml version="1.0" encoding="utf-8"?>
<!-- Generator: Adobe Illustrator 25.2.3, SVG Export Plug-In . SVG Version: 6.00 Build 0)  -->
<svg version="1.1" id="Layer_1" xmlns="http://www.w3.org/2000/svg" xmlns:xlink="http://www.w3.org/1999/xlink" x="0px" y="0px"
	 viewBox="0 0 32 36" style="enable-background:new 0 0 32 36;" xml:space="preserve">
<style type="text/css">
	.st0{fill:#233876;}
</style>
<path class="st0" d="M28.1,16.2h-1.6v-4.9C26.5,5.7,21.8,1,16.2,1C10.4,1,5.8,5.7,5.8,11.3v4.9H4.2c-1.8,0-3.3,1.5-3.3,3.3v13.1
	c0,1.8,1.4,3.3,3.3,3.3h24c1.8,0,3.3-1.4,3.3-3.3V19.5C31.4,17.7,29.9,16.2,28.1,16.2z M21.1,16.2h-9.8v-4.9c0-2.7,2.2-4.9,4.9-4.9
	c2.7,0,4.9,2.2,4.9,4.9V16.2z"/>
</svg>
