<?xml version="1.0" encoding="utf-8"?>
<!-- Generator: Adobe Illustrator 25.2.3, SVG Export Plug-In . SVG Version: 6.00 Build 0)  -->
<svg version="1.1" id="Layer_1" xmlns="http://www.w3.org/2000/svg" xmlns:xlink="http://www.w3.org/1999/xlink" x="0px" y="0px"
	 viewBox="0 0 34 34" style="enable-background:new 0 0 34 34;" xml:space="preserve">
<style type="text/css">
	.st0{fill-rule:evenodd;clip-rule:evenodd;fill:url(#SVGID_1_);}
</style>
<linearGradient id="SVGID_1_" gradientUnits="userSpaceOnUse" x1="39.206" y1="-1.0628" x2="0.6029" y2="33.74" gradientTransform="matrix(1 0 0 -1 0 36)">
	<stop  offset="0" style="stop-color:#0C3B83"/>
	<stop  offset="1.000000e-04" style="stop-color:#09459E"/>
	<stop  offset="1" style="stop-color:#0066FF"/>
</linearGradient>
<path class="st0" d="M31.7,24.9l0.5-1.2c0.9-2.1,1.4-4.4,1.4-6.8C33.7,7.6,26.1,0,16.8,0C7.5,0,0,7.6,0,16.9
	c0,9.3,7.5,16.9,16.8,16.9c3.1,0,6-0.8,8.4-2.3l1.3-0.8l6.9,1.6L31.7,24.9z M9.9,25.1L9.9,25.1c-1.7-1.8-2.7-4-2.9-6.4
	c0-0.2,0-0.4,0-0.6c0,0,0-0.1,0-0.1c2.5-2.6,6-4.1,9.8-4.1c3.8,0,7.3,1.6,9.8,4.2c-0.1,2.8-1.1,5.1-2.9,7.1c-1.9,2-4.2,3.1-6.8,3.1
	C14.2,28.2,11.9,27.2,9.9,25.1L9.9,25.1z"/>
</svg>
